<?xml version="1.0" encoding="UTF-8" standalone="no"?>
<svg width="262px" height="407px" viewBox="0 0 262 407" version="1.1" xmlns="http://www.w3.org/2000/svg" xmlns:xlink="http://www.w3.org/1999/xlink" xmlns:sketch="http://www.bohemiancoding.com/sketch/ns">
    <!-- Generator: Sketch 3.4.4 (17248) - http://www.bohemiancoding.com/sketch -->
    <title>dc-404</title>
    <desc>Created with Sketch.</desc>
    <defs></defs>
    <g id="Page-1" stroke="none" stroke-width="1" fill="none" fill-rule="evenodd" sketch:type="MSPage">
        <g id="404" sketch:type="MSArtboardGroup" transform="translate(-757.000000, -97.000000)">
            <g id="dc-404" sketch:type="MSLayerGroup" transform="translate(740.000000, 77.000000)">
                <path d="M111.227398,156.531337 C158.983054,155.333052 197.208488,125.811655 197.208488,89.5691574 C197.208488,52.5660792 157.361831,22.5691574 108.208488,22.5691574 C59.0551452,22.5691574 19.208488,52.5660792 19.208488,89.5691574 C19.208488,121.104163 48.1487198,147.550666 87.1260501,154.678219 L99.208488,180.569157 L111.227398,156.531337 L111.227398,156.531337 Z" id="Oval-56" fill="#FFFFFF" sketch:type="MSShapeGroup" transform="translate(108.208488, 101.569157) rotate(343.000000) translate(-108.208488, -101.569157) "></path>
                <path d="M101,210 L221.096386,210 L279,267.651815 L279,427 L101,427 L101,210 Z" id="Rectangle-104" fill="#FFFFFF" sketch:type="MSShapeGroup"></path>
                <path d="M222,369.038981 L232.422329,369.038981 C232.422329,369.038981 232.422329,376.706905 232.422329,391.914191 C232.422329,397.941998 227.437799,401.944301 220.751425,402.04434 C214.038094,402.144783 209.170281,398.284752 209.170281,391.914191 C209.170281,376.220618 209.170281,369.038981 209.170281,369.038981 L219,369.038981 L219,369.392359 L219,393.607641 L219,395 L222,395 L222,393.607641 L222,369.392359 L222,369.038981 Z M206.170281,369 L139.24498,369 L137.74498,369 L137.74498,366 L139.24498,366 L244.404669,366 L245.904669,366 L245.904669,369 L244.404669,369 L235.422329,369 C235.422329,372.826834 235.422329,380.496383 235.422329,391.914191 C235.422329,408.982948 206.170281,409.858269 206.170281,391.914191 C206.170281,380.119148 206.170281,372.699811 206.170281,368.999997 Z" id="Shape" fill="#641A40" sketch:type="MSShapeGroup"></path>
                <path d="M276,269.509901 L276,424 L104,424 L104,213 L219.596386,213 L219.596386,269.509901 L276,269.509901 L276,269.509901 Z M273.026549,266.5 L222.596386,215.619568 L222.596386,266.5 L273.026549,266.5 L273.026549,266.5 Z M101,210 L221.096386,210 L279,267.651815 L279,427 L101,427 L101,210 L101,210 Z" id="Shape" fill="#641A40" sketch:type="MSShapeGroup"></path>
                <path d="M141.491064,315.940594 L127.179332,301.602591 L126.119644,300.540959 L128.242909,298.421585 L129.302596,299.483217 L143.610442,313.817326 L157.918287,299.483217 L158.977975,298.421585 L161.101239,300.540959 L160.041552,301.602591 L145.72982,315.940594 L159.736641,329.973126 L160.796328,331.034758 L158.673064,333.154133 L157.613376,332.0925 L143.610442,318.063862 L129.607507,332.0925 L128.54782,333.154133 L126.424555,331.034758 L127.484243,329.973126 L141.491064,315.940594 L141.491064,315.940594 Z" id="Shape" fill="#641A40" sketch:type="MSShapeGroup"></path>
                <path d="M237.844478,315.940594 L223.532745,301.602591 L222.473058,300.540959 L224.596323,298.421585 L225.65601,299.483217 L239.963855,313.817326 L254.271701,299.483217 L255.331388,298.421585 L257.454653,300.540959 L256.394966,301.602591 L242.083233,315.940594 L256.090055,329.973126 L257.149742,331.034758 L255.026477,333.154133 L253.96679,332.0925 L239.963855,318.063862 L225.960921,332.0925 L224.901234,333.154133 L222.777969,331.034758 L223.837656,329.973126 L237.844478,315.940594 L237.844478,315.940594 Z" id="Shape" fill="#641A40" sketch:type="MSShapeGroup"></path>
                <path d="M85.3046875,100.404297 L85.3046875,107 L81.4804688,107 L81.4804688,100.404297 L66.1835938,100.404297 L66.1835938,96.5800781 L81.6523438,77.265625 L85.3046875,77.265625 L85.3046875,96.9667969 L89.4082031,96.9667969 L89.4082031,100.404297 L85.3046875,100.404297 Z M81.4804688,82.9375 L70.09375,96.9667969 L81.4804688,96.9667969 L81.4804688,82.9375 Z M116.392578,92.1757812 C116.392578,97.4896099 115.504566,101.399727 113.728516,103.90625 C111.952465,106.412773 109.202493,107.666016 105.478516,107.666016 C101.754539,107.666016 99.0117276,106.419934 97.25,103.927734 C95.4882724,101.435534 94.6074219,97.5325787 94.6074219,92.21875 C94.6074219,86.9049213 95.4882724,83.0019656 97.25,80.5097656 C99.0117276,78.0175657 101.754539,76.7714844 105.478516,76.7714844 C109.231139,76.7714844 111.988272,78.0104043 113.75,80.4882812 C115.511728,82.9661582 116.392578,86.8619526 116.392578,92.1757812 L116.392578,92.1757812 Z M112.203125,92.1757812 C112.203125,88.0364376 111.66244,85.0071711 110.581055,83.0878906 C109.499669,81.1686102 107.79884,80.2089844 105.478516,80.2089844 C103.186838,80.2089844 101.49675,81.1757716 100.408203,83.109375 C99.319656,85.0429784 98.7753906,88.0794064 98.7753906,92.21875 C98.7753906,96.3580936 99.319656,99.3945216 100.408203,101.328125 C101.49675,103.261728 103.186838,104.228516 105.478516,104.228516 C107.79884,104.228516 109.499669,103.261728 110.581055,101.328125 C111.66244,99.3945216 112.203125,96.3437708 112.203125,92.1757812 L112.203125,92.1757812 Z M139.617188,100.404297 L139.617188,107 L135.792969,107 L135.792969,100.404297 L120.496094,100.404297 L120.496094,96.5800781 L135.964844,77.265625 L139.617188,77.265625 L139.617188,96.9667969 L143.720703,96.9667969 L143.720703,100.404297 L139.617188,100.404297 Z M135.792969,82.9375 L124.40625,96.9667969 L135.792969,96.9667969 L135.792969,82.9375 Z" id="404" fill="#F24F0B" sketch:type="MSShapeGroup"></path>
            </g>
        </g>
    </g>
</svg>